# xmcd
#
# Track frame offsets: 
#        150
#        16571
#        33741
#        50454
#        70461
#        89025
#        107645
#        126816
#        144606
#        173922
#        191753
#
# Disc length: 2906 seconds
#
# Revision: 0
# Processed by: cddbd v1.4PL0 Copyright (c) Steve Scherf et al.
# Submitted via: ExactAudioCopy v0.95a3
#
DISCID=9d0b580b
DTITLE=Mike Francis - All Rooms With A View
DYEAR=1999
DGENRE=Pop
TTITLE0=Wake Up Everybody
TTITLE1=Harvest For The World
TTITLE2=Room In Your Heart
TTITLE3=Waves
TTITLE4=Paradise
TTITLE5=Don't You Know
TTITLE6=I'm Missing You
TTITLE7=Spell On Me
TTITLE8=Let Me In (99 Version)
TTITLE9=Stay With Me
TTITLE10=Survivor99
EXTD=
EXTT0=
EXTT1=
EXTT2=
EXTT3=
EXTT4=
EXTT5=
EXTT6=
EXTT7=
EXTT8=
EXTT9=
EXTT10=
PLAYORDER=
